<svg xmlns="http://www.w3.org/2000/svg" width="900" height="600" viewBox="0 0 900 600" role="img" aria-labelledby="title desc">
  <title id="title">Civil engineering documentation illustration</title>
  <desc id="desc">A minimal monochrome drawing of site records, checklists, and construction notes.</desc>
  <rect width="900" height="600" fill="#111"/>
  <rect x="120" y="90" width="300" height="420" fill="#1f1f1f" stroke="#f2f2f2" stroke-width="3"/>
  <rect x="480" y="130" width="300" height="340" fill="#1f1f1f" stroke="#858585" stroke-width="3"/>
  <path d="M160 170h210M160 225h210M160 280h150M160 335h210M160 390h120" stroke="#d7d7d7" stroke-width="5"/>
  <path d="M530 210h190M530 265h190M530 320h135M530 375h190" stroke="#bdbdbd" stroke-width="5"/>
  <path d="M145 170l-18-18M145 225l-18-18M145 335l-18-18" stroke="#fff" stroke-width="4"/>
  <circle cx="685" cy="410" r="54" fill="none" stroke="#f2f2f2" stroke-width="3"/>
  <path d="M651 410h68M685 376v68" stroke="#f2f2f2" stroke-width="3"/>
  <text x="120" y="555" fill="#fff" font-family="Inter, Arial, sans-serif" font-size="36">Documentation</text>
  <text x="455" y="555" fill="#bdbdbd" font-family="Inter, Arial, sans-serif" font-size="18">daily records - drawings - quantities - checks</text>
</svg>
